<svg width="300" height="200" xmlns="http://www.w3.org/2000/svg">
  <!-- Pão de cima -->
  <rect x="20" y="20" width="260" height="40" rx="10" ry="10" fill="#d0a67e" />

  <!-- Ingredientes do hambúrguer -->
  <rect x="40" y="70" width="220" height="20" fill="#a95126" />
  <rect x="40" y="100" width="220" height="20" fill="#76b959" />
  <rect x="40" y="130" width="220" height="20" fill="#e9634f" />

  <!-- Carne do hambúrguer -->
  <rect x="40" y="160" width="220" height="20" fill="#843b16" />

  <!-- Pão de baixo -->
  <rect x="20" y="190" width="260" height="40" rx="10" ry="10" fill="#d0a67e" />

  <!-- Sementes de gergelim -->
  <circle cx="40" cy="35" r="5" fill="#654321" />
  <circle cx="60" cy="35" r="5" fill="#654321" />
  <circle cx="80" cy="35" r="5" fill="#654321" />
  <circle cx="100" cy="35" r="5" fill="#654321" />
  <circle cx="120" cy="35" r="5" fill="#654321" />
  <circle cx="140" cy="35" r="5" fill="#654321" />
  <circle cx="160" cy="35" r="5" fill="#654321" />
  <circle cx="180" cy="35" r="5" fill="#654321" />
  <circle cx="200" cy="35" r="5" fill="#654321" />
  <circle cx="220" cy="35" r="5" fill="#654321" />
</svg>
